<svg xmlns="http://www.w3.org/2000/svg" width="209.616" height="94.466" viewBox="0 0 209.616 94.466">
  <g id="그룹_1" data-name="그룹 1" transform="translate(-314.998 -269.773)">
    <path id="패스_1" data-name="패스 1" d="M469.4,339.839a1.732,1.732,0,0,0-.974.3c-.1.079-.187.163-.285.241a48.13,48.13,0,0,1-5.6,3.9l-.02.012c-10.613,6.348-25.448,10.3-41.88,10.3a94.923,94.923,0,0,1-23.923-2.982,67.155,67.155,0,0,1-19.928-8.556,46.219,46.219,0,0,1-3.891-2.866l0,0a1.737,1.737,0,0,0-2.654,2.06c.063.113.128.223.191.333.343.6.705,1.187,1.1,1.768a36.877,36.877,0,0,0,9.58,9.412c9.771,6.784,23.863,11.046,39.533,11.046a83.319,83.319,0,0,0,13.387-1.069,73.2,73.2,0,0,0,12.912-3.307c10.978-3.934,19.516-10.25,23.884-17.835a1.643,1.643,0,0,0,.182-.328,1.747,1.747,0,0,0-1.614-2.423Z" transform="translate(-0.444 -0.564)" fill="#fff"/>
    <path id="패스_2" data-name="패스 2" d="M341.915,269.773v35.753a8,8,0,1,1-16.005,0h0a6.288,6.288,0,0,0-6.283-6.28H315v6.281a18.914,18.914,0,1,0,37.828,0V269.773Z" transform="translate(0)" fill="#fff"/>
    <path id="패스_3" data-name="패스 3" d="M380.149,284.143a20.711,20.711,0,1,0,20.709,20.71A20.711,20.711,0,0,0,380.149,284.143Zm0,30.767A10.056,10.056,0,1,1,390.2,304.853,10.057,10.057,0,0,1,380.149,314.91Z" transform="translate(-0.358 -0.116)" fill="#fff"/>
    <path id="패스_4" data-name="패스 4" d="M433.188,284.839l-9.4,23.753-9.4-23.753H402.652l15.269,38.58,0-.081a8.455,8.455,0,0,1-8.456,8.455l-.351,0a5.534,5.534,0,0,0-5.531,5.532v5.345h5.533a19.156,19.156,0,0,0,2.234-.14,18.961,18.961,0,0,0,14.615-10.06c.31-.592.872-1.938.872-1.938l18.082-45.69Z" transform="translate(-0.705 -0.121)" fill="#fff"/>
    <path id="패스_5" data-name="패스 5" d="M514.29,284.139l-8.727,23.784-8.727-23.784H466.268a20.7,20.7,0,0,0-.384,41.4v.023h16.329v-8.832H468.174a11.874,11.874,0,0,1-11.423-8.656,9.957,9.957,0,0,1,.009-6.487,11.872,11.872,0,0,1,11.309-8.612v-.006h20.888l11.534,29.145a5.455,5.455,0,0,0,10.146,0l15.028-37.976Z" transform="translate(-1.051 -0.116)" fill="#fff"/>
    <path id="패스_6" data-name="패스 6" d="M466.016,300.7a4.123,4.123,0,0,0,0,8.245h16.329V300.7Z" transform="translate(-1.182 -0.249)" fill="#fff"/>
  </g>
</svg>
