<svg xmlns="http://www.w3.org/2000/svg" width="72" height="32.447" viewBox="0 0 72 32.447">
  <g id="그룹_3" data-name="그룹 3" transform="translate(-314.998 -269.773)">
    <path id="패스_7" data-name="패스 7" d="M404.06,339.828a.592.592,0,0,0-.333.1c-.033.027-.064.056-.1.082a16.458,16.458,0,0,1-1.914,1.333l-.007,0a28.406,28.406,0,0,1-14.32,3.521,32.456,32.456,0,0,1-8.18-1.02,22.962,22.962,0,0,1-6.814-2.925,15.8,15.8,0,0,1-1.33-.98h0a.594.594,0,0,0-.908.7c.021.039.044.076.065.114.117.2.241.406.376.6a12.611,12.611,0,0,0,3.276,3.218,24.055,24.055,0,0,0,13.517,3.777,28.487,28.487,0,0,0,4.577-.366,25.027,25.027,0,0,0,4.415-1.131c3.754-1.345,6.673-3.5,8.167-6.1a.563.563,0,0,0,.062-.112.6.6,0,0,0-.552-.829Z" transform="translate(-36.254 -46.143)" fill="#f88216"/>
    <path id="패스_8" data-name="패스 8" d="M324.2,269.773V282a2.736,2.736,0,1,1-5.473,0h0a2.15,2.15,0,0,0-2.148-2.147H315V282a6.467,6.467,0,1,0,12.934,0V269.773Z" fill="#f88216"/>
    <path id="패스_9" data-name="패스 9" d="M366.52,284.143a7.081,7.081,0,1,0,7.081,7.081A7.082,7.082,0,0,0,366.52,284.143Zm0,10.52a3.439,3.439,0,1,1,3.438-3.439A3.439,3.439,0,0,1,366.52,294.663Z" transform="translate(-29.282 -9.456)" fill="#f88216"/>
    <path id="패스_10" data-name="패스 10" d="M413.093,284.839l-3.214,8.122-3.214-8.122h-4.013l5.221,13.191V298a2.891,2.891,0,0,1-2.891,2.891h-.12a1.892,1.892,0,0,0-1.891,1.892v1.827h1.892a6.558,6.558,0,0,0,.764-.048,6.484,6.484,0,0,0,5-3.44c.106-.2.3-.663.3-.663l6.183-15.623Z" transform="translate(-57.754 -9.896)" fill="#f88216"/>
    <path id="패스_11" data-name="패스 11" d="M469.06,284.139l-2.984,8.132-2.984-8.132H452.64a7.079,7.079,0,0,0-.131,14.156v.008h5.583v-3.02h-4.8a4.06,4.06,0,0,1-3.906-2.96,3.405,3.405,0,0,1,0-2.218,4.059,4.059,0,0,1,3.867-2.945v0H460.4l3.944,9.965a1.865,1.865,0,0,0,3.469,0l5.138-12.985Z" transform="translate(-85.951 -9.454)" fill="#0096df"/>
    <path id="패스_12" data-name="패스 12" d="M463.3,300.7a1.41,1.41,0,1,0,0,2.819h5.583V300.7Z" transform="translate(-96.82 -20.385)" fill="#0096df"/>
  </g>
</svg>
